# xmcd
#
# Track frame offsets:
#	150
#	15497
#	29110
#	42705
#	59567
#	74222
#	88187
#	101760
#	116545
#	128565
#	139592
#	153322
#	168925
#	180752
#	205757
#	219912
#
# Disc length: 3106 seconds
#
# Revision: 1
# Processed by: cddbd v1.5.2PL0 Copyright (c) Steve Scherf et al.
# Submitted via: dBpowerAMP V4.0
#
DISCID=e30c2010
DTITLE=Various Artist - The Best of New Country Line Dance 2
DYEAR=1998
DGENRE=Country
TTITLE0=Memphis Roots - Black coffee
TTITLE1=Paul McCoy - Bootscootin' boogie
TTITLE2=Sheila G White - Passionate kisses
TTITLE3=Bayou Boys - Lovin' all night
TTITLE4=Memphis Roots - Tempted
TTITLE5=George Moody - Six days on the road
TTITLE6=Blueberry Hill - One more last chance
TTITLE7=Bayou Boys - Cotton eye Joe (cajun style)
TTITLE8=Blueberry Hill - Chattahoochee
TTITLE9=Memphis Roots - Cherokee boogie
TTITLE10=Bayou Boys - Wild side of life
TTITLE11=Memphis Roots - Fly like a bird
TTITLE12=Blueberry Hill - Hillbilly rock, hillbilly roll
TTITLE13=George Moody - Livin' on love
TTITLE14=Memphis Roots - Watermelon crawl
TTITLE15=George Moody - Old flames
EXTD=
EXTT0=
EXTT1=
EXTT2=
EXTT3=
EXTT4=
EXTT5=
EXTT6=
EXTT7=
EXTT8=
EXTT9=
EXTT10=
EXTT11=
EXTT12=
EXTT13=
EXTT14=
EXTT15=
PLAYORDER=
